<svg width="48" height="35" viewBox="0 0 48 35" fill="none" xmlns="http://www.w3.org/2000/svg">
<path d="M19.1635 34.253C18.2271 34.253 17.3282 33.8971 16.654 33.2417L4.73377 23.8403H1.87778C1.31595 23.8403 0.857117 23.3815 0.857117 22.8196V4.61623C0.857117 4.53203 0.866481 4.43833 0.894572 4.35403C1.00694 3.90463 1.41895 3.59563 1.87778 3.59563C1.96206 3.59563 2.04633 3.60493 2.13997 3.63303L6.75637 4.81293L6.85937 4.74733C8.31077 3.83903 12.0938 1.72282 15.6802 1.72282C16.5416 1.72282 17.3469 1.84456 18.0679 2.09738L18.2084 2.1442L18.3208 2.05992C20.1655 0.748976 22.2442 0.0935059 24.5009 0.0935059C26.0834 0.0935059 27.7877 0.421236 29.5668 1.05799C32.9284 2.50003 38.8839 4.79423 40.7754 4.89723L45.8506 3.60493C45.9255 3.58623 46.0098 3.57683 46.0941 3.57683C46.3282 3.57683 46.5529 3.65183 46.7308 3.79223C46.993 3.98893 47.1428 4.28853 47.1428 4.60693V22.8196C47.1428 23.3815 46.684 23.8403 46.1222 23.8403H42.4047L39.3333 24.8048V25.0202C39.3614 25.685 39.1929 26.3405 38.8745 26.9117C38.2378 28.0353 37.0298 28.7376 35.7282 28.7376C35.1102 28.7376 34.4922 28.5784 33.9491 28.2694L33.6776 28.1102L33.5558 28.4005C32.9846 29.7302 31.683 30.5823 30.2316 30.5917C29.6043 30.5917 28.9862 30.4231 28.4338 30.1047L28.1622 29.9456L28.0405 30.2358C27.4693 31.5655 26.1584 32.427 24.7163 32.427C24.0889 32.427 23.4615 32.2584 22.9184 31.9401L22.6469 31.7809L22.5252 32.0712C22.3566 32.4738 22.1131 32.8296 21.8135 33.1387C21.1206 33.8503 20.1936 34.253 19.201 34.253H19.1635ZM15.5959 3.78293C12.3653 3.78293 8.70406 5.98343 8.00177 6.43283L7.8894 6.50773L6.17581 22.3795L17.9837 31.6685C17.9837 31.6685 18.0399 31.7153 18.0679 31.7434C18.377 32.0431 18.7796 32.2023 19.1916 32.2023C19.6036 32.2023 20.0063 32.0431 20.3059 31.7622C20.9239 31.1348 20.9239 30.1328 20.3059 29.5148L16.6259 25.8348C16.4386 25.6475 16.3263 25.3853 16.3263 25.1138C16.3263 24.8422 16.4293 24.5801 16.6259 24.4021C16.8226 24.2055 17.0754 24.1025 17.3469 24.1025C17.6185 24.1025 17.8713 24.2055 18.0679 24.4021L23.5646 29.9175C23.8923 30.2358 24.2856 30.395 24.6976 30.395C25.1096 30.395 25.531 30.2265 25.8306 29.9175C26.1209 29.6085 26.2801 29.2152 26.2801 28.7938C26.2801 28.3724 26.1022 27.9791 25.8025 27.6795L20.2685 22.1642C19.8658 21.7709 19.8658 21.1154 20.2685 20.7221C20.4651 20.5255 20.7179 20.4225 20.9895 20.4225C21.261 20.4225 21.5232 20.5255 21.7105 20.7221L29.0892 28.0821C29.3889 28.3724 29.7822 28.5316 30.1942 28.5316C30.6062 28.5316 30.9995 28.3724 31.2898 28.0915C31.9171 27.4829 31.9359 26.4809 31.3272 25.8535L23.9672 18.4748C23.6301 18.1002 23.6395 17.5103 23.9859 17.1264C24.1826 16.911 24.4541 16.7893 24.7444 16.7893C24.9972 16.7893 25.2407 16.8829 25.428 17.0515L34.6139 26.2375C34.923 26.5277 35.3162 26.6963 35.7376 26.6963C36.159 26.6963 36.5523 26.5371 36.8519 26.2468C37.4606 25.6288 37.4606 24.6175 36.8519 24.0089L24.2949 11.4612L24.0983 11.6298C22.3004 13.1748 20.5026 13.9614 18.7328 13.9614C17.4593 13.9614 16.2326 13.5588 15.0809 12.7722C13.2736 11.5268 12.7305 9.07343 13.8448 7.18193C14.4535 6.15193 15.1558 5.17813 15.9423 4.26983L16.3356 3.81093H15.6146L15.5959 3.78293ZM26.6734 6.08643C26.9168 6.08643 27.1509 6.17063 27.3382 6.32983C27.7596 6.69503 27.8158 7.34113 27.4412 7.77193C26.9356 8.50233 26.4112 9.16713 25.8774 9.77573L25.6995 9.97243L38.2659 22.5387C38.3314 22.6043 38.3876 22.6698 38.4438 22.7447L38.5655 22.8946L41.1499 22.0893L39.9701 6.83553L39.7641 6.79803C36.7021 6.20813 31.1212 3.92333 28.8645 2.96822C27.2914 2.40639 25.8306 2.12547 24.5009 2.12547C22.4877 2.12547 20.6524 2.77158 19.0605 4.04503C19.0137 4.09193 18.9856 4.11063 18.9482 4.13873C17.5904 5.29983 16.4761 6.66693 15.6146 8.20263C15.0434 9.15773 15.3056 10.4125 16.2139 11.068C17.0005 11.6111 17.8432 11.8826 18.7047 11.8826C20.9333 11.8826 23.3117 10.1128 25.7651 6.62953C25.8119 6.55463 25.8493 6.49843 25.8868 6.45163C26.0834 6.22683 26.3644 6.09573 26.664 6.09573L26.6734 6.08643ZM41.974 6.68573L43.1445 21.7896H45.0828V5.91783L41.9833 6.69503L41.974 6.68573ZM2.89845 21.8083H4.1813L5.81062 6.66693L2.89845 5.91783V21.8083Z" fill="#4F4F4F"/>
</svg>
