<svg width="72" height="72" viewBox="0 0 72 72" fill="none" xmlns="http://www.w3.org/2000/svg">
<path fill-rule="evenodd" clip-rule="evenodd" d="M56.5895 9.0174H15.4192C11.8774 9.0174 9.00488 11.886 9.00005 15.4278V56.5376C8.9932 58.2445 9.66645 59.8839 10.871 61.0933C12.0756 62.3027 13.7122 62.9826 15.4192 62.9826H56.5895C58.2949 62.9803 59.9294 62.2994 61.132 61.0903C62.3347 59.8811 63.0068 58.243 63 56.5376V15.4278C62.9951 11.8894 60.1279 9.02216 56.5895 9.0174ZM32.2887 47.8865C32.2864 48.457 32.057 49.0032 31.6511 49.4041C31.2453 49.8051 30.6965 50.0279 30.1259 50.0234H21.1289C19.9521 50.0186 19.0007 49.0633 19.0007 47.8865V21.1116C19.0007 19.9348 19.9521 18.9795 21.1289 18.9747H30.1259C31.3041 18.9795 32.258 19.9334 32.2628 21.1116L32.2887 47.8865ZM53.0512 35.5934C53.0512 36.1646 52.8226 36.7121 52.4162 37.1136C52.0098 37.5151 51.4596 37.7371 50.8884 37.7304H41.8914C40.7132 37.7255 39.7593 36.7716 39.7546 35.5934V21.1116C39.7593 19.9334 40.7132 18.9795 41.8914 18.9747H50.8884C52.0652 18.9795 53.0166 19.9348 53.0166 21.1116L53.0512 35.5934Z" fill="url(#paint0_linear_10301_238)"/>
<defs>
<linearGradient id="paint0_linear_10301_238" x1="36.026" y1="62.9826" x2="36.026" y2="9.0174" gradientUnits="userSpaceOnUse">
<stop stop-color="#0052CC"/>
<stop offset="1" stop-color="#2684FF"/>
</linearGradient>
</defs>
</svg>
