<svg width="72" height="72" viewBox="0 0 72 72" fill="none" xmlns="http://www.w3.org/2000/svg">
<path fill-rule="evenodd" clip-rule="evenodd" d="M20.7808 13.3835L35.998 11.7893L51.2162 13.3835L62.9981 29.0554L35.9991 60.2106L9 29.0554L20.7808 13.3835Z" fill="#FDB300"/>
<path fill-rule="evenodd" clip-rule="evenodd" d="M19.9364 29.2437L35.9991 60.2106L9 29.2437H19.9364Z" fill="#EA6C00"/>
<path fill-rule="evenodd" clip-rule="evenodd" d="M52.0647 29.2437L35.9991 60.2106L63 29.2437H52.0647Z" fill="#EA6C00"/>
<path fill-rule="evenodd" clip-rule="evenodd" d="M19.6915 29.2437H51.753L35.7222 60.2105L19.6915 29.2437Z" fill="#FDAD00"/>
<path fill-rule="evenodd" clip-rule="evenodd" d="M35.4411 11.7893L20.5199 13.4005L19.6915 29.2437L35.4411 11.7893Z" fill="#FDD231"/>
<path fill-rule="evenodd" clip-rule="evenodd" d="M35.998 11.7893L50.9157 13.4005L51.753 29.2437L35.998 11.7893Z" fill="#FDD231"/>
<path fill-rule="evenodd" clip-rule="evenodd" d="M63 29.2437L51.1873 13.4756L52.0349 29.2412L63 29.2437Z" fill="#FDAD00"/>
<path fill-rule="evenodd" clip-rule="evenodd" d="M9 29.2437L20.8117 13.4756L19.964 29.2412L9 29.2437Z" fill="#FDAD00"/>
<path fill-rule="evenodd" clip-rule="evenodd" d="M35.7222 11.7893L19.6915 29.2437H51.753L35.7222 11.7893Z" fill="#FEEEB7"/>
</svg>
