<svg width="72" height="72" viewBox="0 0 72 72" fill="none" xmlns="http://www.w3.org/2000/svg">
<path d="M53.911 19.3981C53.8736 19.1254 53.6354 18.9741 53.4376 18.9576C53.2414 18.9411 49.3972 18.8827 49.3972 18.8827C49.3972 18.8827 46.1821 15.7606 45.8645 15.443C45.547 15.1254 44.9267 15.2212 44.6855 15.2932C44.6855 15.2932 44.0818 15.4804 43.0705 15.7935C42.9013 15.2452 42.6525 14.571 42.2974 13.8939C41.1529 11.7096 39.4765 10.5545 37.4509 10.5515H37.4435C37.3026 10.5515 37.1633 10.565 37.0225 10.577C36.9626 10.5051 36.9027 10.4347 36.8398 10.3658C35.9573 9.42193 34.8263 8.962 33.4704 9.00245C30.8547 9.07736 28.2494 10.9665 26.137 14.3224C24.6509 16.6834 23.5198 19.6498 23.1992 21.9464C20.1954 22.8767 18.095 23.5269 18.0485 23.5419C16.5324 24.0183 16.4845 24.0647 16.2867 25.494C16.1399 26.5741 12.1728 57.2502 12.1728 57.2502L45.4181 63L59.8272 59.4179C59.8272 59.4179 53.9485 19.6708 53.911 19.3981ZM41.4061 16.3089C40.6405 16.5456 39.7701 16.8153 38.8262 17.1074C38.8068 15.783 38.6495 13.9403 38.0323 12.3478C40.0173 12.7238 40.9941 14.9696 41.4061 16.3089ZM37.0869 17.6467C35.3446 18.186 33.4434 18.7748 31.5363 19.3651C32.0726 17.3111 33.0899 15.2662 34.3394 13.9253C34.8038 13.4265 35.4539 12.8707 36.224 12.553C36.9476 14.0632 37.1049 16.201 37.0869 17.6467ZM33.5228 10.7433C34.1371 10.7298 34.6539 10.8646 35.0959 11.1553C34.3888 11.5223 33.7056 12.0497 33.0644 12.7373C31.4029 14.5201 30.1295 17.2872 29.6217 19.9569C28.0381 20.4467 26.489 20.9277 25.0628 21.3682C25.9633 17.1658 29.4853 10.8601 33.5228 10.7433Z" fill="#95BF47"/>
<path d="M53.4376 18.9576C53.2414 18.9411 49.3972 18.8827 49.3972 18.8827C49.3972 18.8827 46.1821 15.7606 45.8645 15.443C45.7462 15.3246 45.5874 15.2647 45.4195 15.2392L45.4211 62.9986L59.8272 59.4179C59.8272 59.4179 53.9485 19.6708 53.911 19.3981C53.8736 19.1254 53.6354 18.9741 53.4376 18.9576Z" fill="#5E8E3E"/>
<path d="M37.4329 26.3675L35.7596 32.6282C35.7596 32.6282 33.8929 31.7787 31.6801 31.918C28.4351 32.1233 28.4006 34.1698 28.4337 34.6837C28.6104 37.4836 35.9767 38.0949 36.3903 44.6538C36.7154 49.8134 33.6531 53.343 29.2411 53.6216C23.9452 53.9557 21.0298 50.8321 21.0298 50.8321L22.1519 46.059C22.1519 46.059 25.0867 48.2733 27.4358 48.125C28.97 48.0276 29.5183 46.7797 29.4628 45.8972C29.2321 42.2447 23.2336 42.4605 22.8546 36.4589C22.5354 31.4087 25.8524 26.2911 33.1707 25.8296C35.9902 25.6484 37.4329 26.3675 37.4329 26.3675Z" fill="white"/>
</svg>
