<svg width="15" height="12" viewBox="0 0 15 12" fill="none" xmlns="http://www.w3.org/2000/svg">
<path d="M14.707 3.80078C14.8242 3.71289 15 3.80078 15 3.94727V9.92383C15 10.7148 14.3555 11.3301 13.5938 11.3301H1.40625C0.615234 11.3301 0 10.7148 0 9.92383V3.94727C0 3.80078 0.146484 3.71289 0.263672 3.80078C0.9375 4.32812 1.78711 4.97266 4.77539 7.14062C5.39062 7.58008 6.44531 8.54688 7.5 8.54688C8.52539 8.54688 9.60938 7.58008 10.1953 7.14062C13.1836 4.97266 14.0332 4.32812 14.707 3.80078ZM7.5 7.58008C6.79688 7.60938 5.83008 6.73047 5.33203 6.37891C1.43555 3.56641 1.14258 3.30273 0.263672 2.59961C0.0878906 2.48242 0 2.27734 0 2.04297V1.48633C0 0.724609 0.615234 0.0800781 1.40625 0.0800781H13.5938C14.3555 0.0800781 15 0.724609 15 1.48633V2.04297C15 2.27734 14.8828 2.48242 14.707 2.59961C13.8281 3.30273 13.5352 3.56641 9.63867 6.37891C9.14062 6.73047 8.17383 7.60938 7.5 7.58008Z" fill="#E6ECFD"/>
</svg>
