<svg width="15" height="15" viewBox="0 0 15 15" fill="none" xmlns="http://www.w3.org/2000/svg">
<path d="M14.4803 0.763672C14.7811 0.845703 14.9999 1.0918 14.9999 1.39258C14.9999 8.41992 9.31238 14.0801 2.31238 14.0801C1.98425 14.0801 1.73816 13.8887 1.65613 13.5879L0.999878 10.7441C0.94519 10.4434 1.08191 10.1152 1.38269 9.97852L4.44519 8.66602C4.71863 8.55664 5.01941 8.63867 5.21082 8.85742L6.578 10.5254C8.71082 9.51367 10.4335 7.76367 11.4178 5.68555L9.74988 4.31836C9.53113 4.12695 9.4491 3.82617 9.55847 3.55273L10.871 0.490234C11.0077 0.189453 11.3358 0.0253906 11.6366 0.107422L14.4803 0.763672Z" fill="#E6ECFD"/>
</svg>
