<svg width="61" height="60" viewBox="0 0 61 60" fill="none" xmlns="http://www.w3.org/2000/svg">
<g clip-path="url(#clip0_1_22094)">
<path d="M13.8193 51.7868C13.8193 47.8987 13.805 44.3869 13.8422 40.8723C13.8452 40.5838 14.123 40.1791 14.3893 40.032C17.5204 38.2916 20.6743 36.588 24.0832 34.7346C24.0832 36.8484 24.0832 38.7359 24.0832 40.6261C24.0832 41.9873 24.0372 43.3513 24.0974 44.7096C24.1404 45.683 23.7566 46.28 22.8943 46.7272C21.3532 47.5223 19.8492 48.3939 18.1276 49.3419C22.2212 51.5831 26.097 53.7223 29.9985 55.8136C30.2907 55.9692 30.835 55.9098 31.1472 55.7428C34.9772 53.6827 38.7842 51.5831 42.8719 49.3419C41.2392 48.442 39.8183 47.5818 38.3287 46.8601C37.2373 46.331 36.8592 45.6009 36.8878 44.4096C36.9652 41.2827 36.9136 38.153 36.9136 34.7827C40.3311 36.6277 43.5623 38.3652 46.7793 40.1281C46.974 40.2357 47.1602 40.5611 47.1602 40.7875C47.1832 44.336 47.1773 47.8845 47.1773 51.7839C45.7365 50.3097 44.668 51.235 43.5794 51.832C39.7209 53.9431 35.8479 56.023 32.0352 58.2132C30.8922 58.8698 30.0186 58.8075 28.9128 58.1793C25.0084 55.9607 21.0438 53.8497 17.1222 51.6566C16.0938 51.0821 15.1342 50.553 13.8136 51.7868H13.8193Z" fill="#FFA229"/>
<path d="M18.9527 14.6464C15.5324 16.5168 12.3814 18.2317 9.25038 19.9833C8.98397 20.1333 8.71757 20.5465 8.71183 20.8435C8.67173 23.5064 8.68892 26.1692 8.68892 29.0584C9.71443 28.5009 10.5337 27.9349 11.4418 27.6067C12.0433 27.3888 12.9027 27.2558 13.4183 27.5218C16.4748 29.0951 19.4626 30.7986 22.6766 32.5673C19.3108 34.3897 16.1225 36.1244 12.9199 37.8306C12.7137 37.941 12.347 37.9354 12.1379 37.825C8.92095 36.1442 5.71835 34.4378 2.34387 32.6465C2.85377 32.3267 3.16601 32.0353 3.53267 31.9193C5.71835 31.2345 6.39152 29.8139 6.17095 27.5841C5.94464 25.3061 6.21105 22.9828 6.08788 20.6907C6.01053 19.2532 6.56626 18.4892 7.81808 17.8411C11.0092 16.1914 14.1002 14.3492 17.297 12.7107C18.5431 12.0712 19.2392 11.3609 18.9699 9.92064C18.8783 9.42824 18.9556 8.90756 18.9556 8.16333C22.3616 10.0026 25.5957 11.7373 28.8098 13.5087C29.0303 13.6305 29.2022 14.038 29.2022 14.3125C29.228 17.8242 29.2194 21.3359 29.2194 25.0599C25.9337 23.2602 22.7798 21.5736 19.6889 19.7852C19.2822 19.5504 19.0386 18.7948 18.9871 18.2571C18.8811 17.1479 18.9556 16.0216 18.9556 14.652L18.9527 14.6464Z" fill="#FFA229"/>
<path d="M52.3193 29.0891C52.3193 26.231 52.3365 23.6531 52.2992 21.0752C52.2935 20.7157 52.1073 20.1866 51.8351 20.0338C48.6755 18.2511 45.4815 16.5249 42.0527 14.6516C42.0527 16.0098 42.1443 17.1644 42.0126 18.2935C41.9467 18.8595 41.6144 19.615 41.1588 19.8781C38.1425 21.627 35.063 23.2682 31.7888 25.0623C31.7888 21.3044 31.7803 17.7218 31.806 14.1422C31.806 13.9187 32.018 13.5989 32.2243 13.4885C35.4097 11.7652 38.6123 10.0674 41.7948 8.37231C41.9237 8.54775 42.0268 8.62699 42.0154 8.68358C41.5169 11.171 42.7946 12.4104 44.9688 13.4206C47.9222 14.7902 50.695 16.5391 53.574 18.0671C54.525 18.5708 54.9289 19.2047 54.906 20.2913C54.8429 23.1975 54.9489 26.1094 54.8516 29.0156C54.8144 30.17 55.1868 30.8266 56.2266 31.268C56.9599 31.5793 57.6302 32.0377 58.4667 32.5075C58.1201 32.7536 57.8594 32.9772 57.5644 33.1385C54.8258 34.627 52.0872 36.1211 49.3258 37.5727C48.9563 37.768 48.3605 37.9519 48.0539 37.7935C44.8342 36.1239 41.6516 34.3836 38.28 32.5669C41.5342 30.7841 44.5677 29.0721 47.6615 27.479C48.137 27.2328 48.9534 27.3742 49.5091 27.5893C50.4144 27.9402 51.2393 28.5005 52.3135 29.0919L52.3193 29.0891Z" fill="#FFA229"/>
<path d="M60.0194 34.7463C60.0194 38.3882 60.048 41.7188 59.985 45.0466C59.9764 45.5221 59.6441 46.2041 59.2517 46.4304C56.1923 48.1877 53.0813 49.8573 49.7556 51.6797C49.7556 47.8934 49.7441 44.3534 49.7756 40.8105C49.7756 40.5559 50.022 40.1964 50.254 40.0691C53.4251 38.3175 56.6134 36.5941 60.0165 34.7463H60.0194Z" fill="#FFA229"/>
<path d="M11.2498 51.6845C7.93547 49.865 4.86464 48.2209 1.85396 46.4834C1.42428 46.2344 1.03469 45.5298 1.02323 45.026C0.948755 41.7096 0.985995 38.3931 0.985995 34.8616C4.36333 36.6584 7.59745 38.3677 10.8115 40.1136C11.035 40.2353 11.2297 40.6201 11.2326 40.8861C11.2612 44.3894 11.2498 47.8955 11.2498 51.6845Z" fill="#FFA229"/>
<path d="M20.3191 5.95007C23.6392 4.12769 26.8045 2.37041 30.0013 0.669713C30.2993 0.511245 30.8636 0.58482 31.1873 0.757436C34.3383 2.45247 37.4636 4.19278 40.7206 5.98686C37.4264 7.74414 34.2839 9.44484 31.1099 11.0861C30.7748 11.2587 30.179 11.2247 29.8323 11.0437C26.7071 9.41088 23.6105 7.7215 20.3191 5.95007Z" fill="#FFA229"/>
</g>
<defs>
<clipPath id="clip0_1_22094">
<rect width="60" height="59.0476" fill="white" transform="translate(0.660004 0.106445)"/>
</clipPath>
</defs>
</svg>
